<?xml version="1.0" standalone="no"?>
<!DOCTYPE svg PUBLIC "-//W3C//DTD SVG 20010904//EN"
 "http://www.w3.org/TR/2001/REC-SVG-20010904/DTD/svg10.dtd">
<svg version="1.0" xmlns="http://www.w3.org/2000/svg"
 width="36.000000pt" height="32.000000pt" viewBox="0 0 36.000000 32.000000"
 preserveAspectRatio="xMidYMid meet">

<g transform="translate(0.000000,32.000000) scale(0.100000,-0.100000)"
fill="#000000" stroke="none">
<path d="M23 288 l-21 -23 58 -50 c32 -27 59 -52 59 -55 0 -3 -27 -27 -59 -55
l-58 -50 21 -23 c29 -31 43 -28 98 23 26 25 53 45 59 45 6 0 33 -20 59 -45 55
-51 69 -54 98 -23 l21 23 -58 50 c-32 28 -59 52 -59 55 0 3 27 28 59 55 l58
50 -21 23 c-29 31 -43 28 -98 -23 -26 -25 -53 -45 -59 -45 -6 0 -33 20 -59 45
-55 51 -69 54 -98 23z"/>
</g>
</svg>
