<?xml version="1.0" standalone="no"?>
<!DOCTYPE svg PUBLIC "-//W3C//DTD SVG 20010904//EN"
 "http://www.w3.org/TR/2001/REC-SVG-20010904/DTD/svg10.dtd">
<svg version="1.0" xmlns="http://www.w3.org/2000/svg"
 width="36.000000pt" height="32.000000pt" viewBox="0 0 36.000000 32.000000"
 preserveAspectRatio="xMidYMid meet">

<g transform="translate(0.000000,32.000000) scale(0.100000,-0.100000)"
fill="#000000" stroke="none">
<path d="M152 204 c11 -11 21 -14 26 -9 4 6 6 9 3 8 -2 -1 -13 3 -25 9 -20 10
-20 10 -4 -8z"/>
<path d="M189 177 c-68 -84 -67 -82 -41 -68 13 7 30 10 38 7 16 -6 19 10 4 19
-5 3 -10 11 -10 17 0 6 12 1 26 -13 25 -22 26 -22 13 -2 -10 17 -10 27 -1 49
19 41 9 38 -29 -9z"/>
<path d="M139 188 c7 -9 9 -23 5 -30 -6 -10 -4 -11 7 0 11 10 10 15 -6 30 -17
15 -18 15 -6 0z"/>
</g>
</svg>
